<mxfile host="Electron" agent="Mozilla/5.0 (Windows NT 10.0; Win64; x64) AppleWebKit/537.36 (KHTML, like Gecko) draw.io/24.7.8 Chrome/128.0.6613.36 Electron/32.0.1 Safari/537.36" version="24.7.8">
  <diagram name="Page-1" id="o4iPFlabACkhGWsXo5m4">
    <mxGraphModel dx="917" dy="716" grid="1" gridSize="5" guides="1" tooltips="1" connect="1" arrows="1" fold="1" page="1" pageScale="1" pageWidth="827" pageHeight="1169" math="1" shadow="0">
      <root>
        <mxCell id="0" />
        <mxCell id="1" parent="0" />
        <mxCell id="fdgpIoRzwKh2oiRHj7HS-68" value="" style="rounded=1;whiteSpace=wrap;html=1;arcSize=5;strokeColor=#FF8000;fillColor=none;fillStyle=auto;" vertex="1" parent="1">
          <mxGeometry x="255" y="30" width="305" height="235" as="geometry" />
        </mxCell>
        <mxCell id="fdgpIoRzwKh2oiRHj7HS-43" style="edgeStyle=orthogonalEdgeStyle;rounded=0;orthogonalLoop=1;jettySize=auto;html=1;entryX=0;entryY=0.5;entryDx=0;entryDy=0;" edge="1" parent="1" source="iWI6JiuLFlBZr3hvlfpt-4" target="fdgpIoRzwKh2oiRHj7HS-35">
          <mxGeometry relative="1" as="geometry" />
        </mxCell>
        <mxCell id="iWI6JiuLFlBZr3hvlfpt-4" value="Fwd. Transform" style="rounded=0;whiteSpace=wrap;html=1;fontFamily=Go Mono;fontSize=10;" parent="1" vertex="1">
          <mxGeometry x="120" y="140" width="120" height="30" as="geometry" />
        </mxCell>
        <mxCell id="a6dJDQt0KXZhfJ8KA_fV-43" value="SpectralPhaser" style="text;html=1;align=left;verticalAlign=middle;resizable=0;points=[];autosize=1;strokeColor=none;fillColor=none;fontStyle=5;fontColor=#007CFF;fontFamily=Go Mono;fontSize=10;" parent="1" vertex="1">
          <mxGeometry x="40" y="9" width="115" height="30" as="geometry" />
        </mxCell>
        <mxCell id="fdgpIoRzwKh2oiRHj7HS-67" style="edgeStyle=orthogonalEdgeStyle;rounded=0;orthogonalLoop=1;jettySize=auto;html=1;entryX=1;entryY=0.5;entryDx=0;entryDy=0;endArrow=none;endFill=0;startArrow=classic;startFill=1;" edge="1" parent="1" source="a6dJDQt0KXZhfJ8KA_fV-44" target="fdgpIoRzwKh2oiRHj7HS-17">
          <mxGeometry relative="1" as="geometry" />
        </mxCell>
        <mxCell id="a6dJDQt0KXZhfJ8KA_fV-44" value="Output" style="text;html=1;align=center;verticalAlign=middle;resizable=0;points=[];autosize=1;strokeColor=none;fillColor=none;fontFamily=Go Mono;fontSize=10;" parent="1" vertex="1">
          <mxGeometry x="730" y="140" width="55" height="30" as="geometry" />
        </mxCell>
        <mxCell id="fdgpIoRzwKh2oiRHj7HS-58" style="edgeStyle=orthogonalEdgeStyle;rounded=0;orthogonalLoop=1;jettySize=auto;html=1;entryX=0.5;entryY=1;entryDx=0;entryDy=0;" edge="1" parent="1" source="fdgpIoRzwKh2oiRHj7HS-1" target="fdgpIoRzwKh2oiRHj7HS-27">
          <mxGeometry relative="1" as="geometry" />
        </mxCell>
        <mxCell id="fdgpIoRzwKh2oiRHj7HS-1" value="" style="triangle;whiteSpace=wrap;html=1;rotation=-180;fontFamily=Go Mono;fontSize=10;" vertex="1" parent="1">
          <mxGeometry x="360" y="210" width="20" height="20" as="geometry" />
        </mxCell>
        <mxCell id="fdgpIoRzwKh2oiRHj7HS-65" style="edgeStyle=orthogonalEdgeStyle;rounded=0;orthogonalLoop=1;jettySize=auto;html=1;entryX=0;entryY=0.5;entryDx=0;entryDy=0;" edge="1" parent="1" source="fdgpIoRzwKh2oiRHj7HS-14" target="iWI6JiuLFlBZr3hvlfpt-4">
          <mxGeometry relative="1" as="geometry" />
        </mxCell>
        <mxCell id="fdgpIoRzwKh2oiRHj7HS-14" value="Input" style="text;html=1;align=center;verticalAlign=middle;resizable=0;points=[];autosize=1;strokeColor=none;fillColor=none;fontFamily=Go Mono;fontSize=10;" vertex="1" parent="1">
          <mxGeometry x="40" y="140" width="50" height="30" as="geometry" />
        </mxCell>
        <mxCell id="fdgpIoRzwKh2oiRHj7HS-64" style="edgeStyle=orthogonalEdgeStyle;rounded=0;orthogonalLoop=1;jettySize=auto;html=1;entryX=0;entryY=0.5;entryDx=0;entryDy=0;" edge="1" parent="1" source="fdgpIoRzwKh2oiRHj7HS-16" target="fdgpIoRzwKh2oiRHj7HS-56">
          <mxGeometry relative="1" as="geometry" />
        </mxCell>
        <mxCell id="fdgpIoRzwKh2oiRHj7HS-16" value="LFO" style="rounded=0;whiteSpace=wrap;html=1;fontFamily=Go Mono;fontSize=10;" vertex="1" parent="1">
          <mxGeometry x="120" y="50" width="120" height="30" as="geometry" />
        </mxCell>
        <mxCell id="fdgpIoRzwKh2oiRHj7HS-17" value="Bwd. Transform" style="rounded=0;whiteSpace=wrap;html=1;fontFamily=Go Mono;fontSize=10;" vertex="1" parent="1">
          <mxGeometry x="580" y="140" width="120" height="30" as="geometry" />
        </mxCell>
        <mxCell id="fdgpIoRzwKh2oiRHj7HS-51" style="edgeStyle=orthogonalEdgeStyle;rounded=0;orthogonalLoop=1;jettySize=auto;html=1;endArrow=none;endFill=0;exitX=0.5;exitY=1;exitDx=0;exitDy=0;" edge="1" parent="1" source="fdgpIoRzwKh2oiRHj7HS-56" target="fdgpIoRzwKh2oiRHj7HS-50">
          <mxGeometry relative="1" as="geometry">
            <mxPoint x="340.0000000000002" y="80.00000000000011" as="sourcePoint" />
          </mxGeometry>
        </mxCell>
        <mxCell id="fdgpIoRzwKh2oiRHj7HS-42" style="edgeStyle=orthogonalEdgeStyle;rounded=0;orthogonalLoop=1;jettySize=auto;html=1;entryX=0;entryY=0.5;entryDx=0;entryDy=0;" edge="1" parent="1" source="fdgpIoRzwKh2oiRHj7HS-20" target="fdgpIoRzwKh2oiRHj7HS-17">
          <mxGeometry relative="1" as="geometry" />
        </mxCell>
        <mxCell id="fdgpIoRzwKh2oiRHj7HS-61" style="edgeStyle=orthogonalEdgeStyle;rounded=0;orthogonalLoop=1;jettySize=auto;html=1;entryX=1;entryY=0.5;entryDx=0;entryDy=0;" edge="1" parent="1" source="fdgpIoRzwKh2oiRHj7HS-20" target="fdgpIoRzwKh2oiRHj7HS-59">
          <mxGeometry relative="1" as="geometry">
            <Array as="points">
              <mxPoint x="540" y="220" />
            </Array>
          </mxGeometry>
        </mxCell>
        <mxCell id="fdgpIoRzwKh2oiRHj7HS-20" value="" style="shape=waypoint;sketch=0;fillStyle=solid;size=6;pointerEvents=1;points=[];fillColor=none;resizable=0;rotatable=0;perimeter=centerPerimeter;snapToPoint=1;" vertex="1" parent="1">
          <mxGeometry x="530" y="145" width="20" height="20" as="geometry" />
        </mxCell>
        <mxCell id="fdgpIoRzwKh2oiRHj7HS-26" value="" style="group;fontFamily=Go Mono;fontSize=10;" vertex="1" connectable="0" parent="1">
          <mxGeometry x="330" y="145" width="20" height="20" as="geometry" />
        </mxCell>
        <mxCell id="fdgpIoRzwKh2oiRHj7HS-27" value="" style="ellipse;whiteSpace=wrap;html=1;aspect=fixed;fontFamily=Go Mono;fontSize=10;" vertex="1" parent="fdgpIoRzwKh2oiRHj7HS-26">
          <mxGeometry width="20" height="20" as="geometry" />
        </mxCell>
        <mxCell id="fdgpIoRzwKh2oiRHj7HS-28" value="" style="endArrow=none;html=1;rounded=0;fontFamily=Go Mono;fontSize=10;" edge="1" parent="fdgpIoRzwKh2oiRHj7HS-26">
          <mxGeometry width="50" height="50" relative="1" as="geometry">
            <mxPoint x="5" y="10" as="sourcePoint" />
            <mxPoint x="15" y="10" as="targetPoint" />
          </mxGeometry>
        </mxCell>
        <mxCell id="fdgpIoRzwKh2oiRHj7HS-29" value="" style="endArrow=none;html=1;rounded=0;fontFamily=Go Mono;fontSize=10;" edge="1" parent="fdgpIoRzwKh2oiRHj7HS-26">
          <mxGeometry width="50" height="50" relative="1" as="geometry">
            <mxPoint x="10" y="5" as="sourcePoint" />
            <mxPoint x="10" y="15" as="targetPoint" />
          </mxGeometry>
        </mxCell>
        <mxCell id="fdgpIoRzwKh2oiRHj7HS-33" value="Feedback" style="text;html=1;align=center;verticalAlign=middle;resizable=0;points=[];autosize=1;strokeColor=none;fillColor=none;fontFamily=Go Mono;fontSize=8;" vertex="1" parent="1">
          <mxGeometry x="341" y="228" width="60" height="25" as="geometry" />
        </mxCell>
        <mxCell id="fdgpIoRzwKh2oiRHj7HS-34" value="" style="group;fontFamily=Go Mono;fontSize=10;" vertex="1" connectable="0" parent="1">
          <mxGeometry x="275" y="145" width="20" height="20" as="geometry" />
        </mxCell>
        <mxCell id="fdgpIoRzwKh2oiRHj7HS-35" value="" style="ellipse;whiteSpace=wrap;html=1;aspect=fixed;fontFamily=Go Mono;fontSize=10;" vertex="1" parent="fdgpIoRzwKh2oiRHj7HS-34">
          <mxGeometry width="20" height="20" as="geometry" />
        </mxCell>
        <mxCell id="fdgpIoRzwKh2oiRHj7HS-36" value="" style="endArrow=none;html=1;rounded=0;fontFamily=Go Mono;fontSize=10;" edge="1" parent="fdgpIoRzwKh2oiRHj7HS-34">
          <mxGeometry width="50" height="50" relative="1" as="geometry">
            <mxPoint x="6" y="6" as="sourcePoint" />
            <mxPoint x="14" y="14" as="targetPoint" />
          </mxGeometry>
        </mxCell>
        <mxCell id="fdgpIoRzwKh2oiRHj7HS-37" value="" style="endArrow=none;html=1;rounded=0;fontFamily=Go Mono;fontSize=10;" edge="1" parent="fdgpIoRzwKh2oiRHj7HS-34">
          <mxGeometry width="50" height="50" relative="1" as="geometry">
            <mxPoint x="14" y="6" as="sourcePoint" />
            <mxPoint x="6" y="14" as="targetPoint" />
          </mxGeometry>
        </mxCell>
        <mxCell id="fdgpIoRzwKh2oiRHj7HS-44" style="edgeStyle=orthogonalEdgeStyle;rounded=0;orthogonalLoop=1;jettySize=auto;html=1;entryX=0;entryY=0.5;entryDx=0;entryDy=0;" edge="1" parent="1" source="fdgpIoRzwKh2oiRHj7HS-35" target="fdgpIoRzwKh2oiRHj7HS-27">
          <mxGeometry relative="1" as="geometry" />
        </mxCell>
        <mxCell id="fdgpIoRzwKh2oiRHj7HS-45" value="" style="group;fontFamily=Go Mono;fontSize=10;" vertex="1" connectable="0" parent="1">
          <mxGeometry x="390" y="145" width="20" height="20" as="geometry" />
        </mxCell>
        <mxCell id="fdgpIoRzwKh2oiRHj7HS-46" value="" style="ellipse;whiteSpace=wrap;html=1;aspect=fixed;fontFamily=Go Mono;fontSize=10;" vertex="1" parent="fdgpIoRzwKh2oiRHj7HS-45">
          <mxGeometry width="20" height="20" as="geometry" />
        </mxCell>
        <mxCell id="fdgpIoRzwKh2oiRHj7HS-47" value="" style="endArrow=none;html=1;rounded=0;fontFamily=Go Mono;fontSize=10;" edge="1" parent="fdgpIoRzwKh2oiRHj7HS-45">
          <mxGeometry width="50" height="50" relative="1" as="geometry">
            <mxPoint x="6" y="6" as="sourcePoint" />
            <mxPoint x="14" y="14" as="targetPoint" />
          </mxGeometry>
        </mxCell>
        <mxCell id="fdgpIoRzwKh2oiRHj7HS-48" value="" style="endArrow=none;html=1;rounded=0;fontFamily=Go Mono;fontSize=10;" edge="1" parent="fdgpIoRzwKh2oiRHj7HS-45">
          <mxGeometry width="50" height="50" relative="1" as="geometry">
            <mxPoint x="14" y="6" as="sourcePoint" />
            <mxPoint x="6" y="14" as="targetPoint" />
          </mxGeometry>
        </mxCell>
        <mxCell id="fdgpIoRzwKh2oiRHj7HS-52" style="edgeStyle=orthogonalEdgeStyle;rounded=0;orthogonalLoop=1;jettySize=auto;html=1;entryX=0.5;entryY=0;entryDx=0;entryDy=0;" edge="1" parent="1" source="fdgpIoRzwKh2oiRHj7HS-50" target="fdgpIoRzwKh2oiRHj7HS-46">
          <mxGeometry relative="1" as="geometry" />
        </mxCell>
        <mxCell id="fdgpIoRzwKh2oiRHj7HS-53" style="edgeStyle=orthogonalEdgeStyle;rounded=0;orthogonalLoop=1;jettySize=auto;html=1;entryX=0.5;entryY=0;entryDx=0;entryDy=0;" edge="1" parent="1" source="fdgpIoRzwKh2oiRHj7HS-50" target="fdgpIoRzwKh2oiRHj7HS-35">
          <mxGeometry relative="1" as="geometry" />
        </mxCell>
        <mxCell id="fdgpIoRzwKh2oiRHj7HS-50" value="" style="shape=waypoint;sketch=0;fillStyle=solid;size=6;pointerEvents=1;points=[];fillColor=none;resizable=0;rotatable=0;perimeter=centerPerimeter;snapToPoint=1;" vertex="1" parent="1">
          <mxGeometry x="330" y="100" width="20" height="20" as="geometry" />
        </mxCell>
        <mxCell id="fdgpIoRzwKh2oiRHj7HS-54" style="edgeStyle=orthogonalEdgeStyle;rounded=0;orthogonalLoop=1;jettySize=auto;html=1;entryX=0;entryY=0.5;entryDx=0;entryDy=0;" edge="1" parent="1" source="fdgpIoRzwKh2oiRHj7HS-27" target="fdgpIoRzwKh2oiRHj7HS-46">
          <mxGeometry relative="1" as="geometry" />
        </mxCell>
        <mxCell id="fdgpIoRzwKh2oiRHj7HS-55" style="edgeStyle=orthogonalEdgeStyle;rounded=0;orthogonalLoop=1;jettySize=auto;html=1;entryX=0.086;entryY=0.562;entryDx=0;entryDy=0;entryPerimeter=0;endArrow=none;endFill=0;" edge="1" parent="1" source="fdgpIoRzwKh2oiRHj7HS-46" target="fdgpIoRzwKh2oiRHj7HS-20">
          <mxGeometry relative="1" as="geometry" />
        </mxCell>
        <mxCell id="fdgpIoRzwKh2oiRHj7HS-56" value="Mask" style="rounded=0;whiteSpace=wrap;html=1;fontFamily=Go Mono;fontSize=10;" vertex="1" parent="1">
          <mxGeometry x="300" y="50" width="80" height="30" as="geometry" />
        </mxCell>
        <mxCell id="fdgpIoRzwKh2oiRHj7HS-62" style="edgeStyle=orthogonalEdgeStyle;rounded=0;orthogonalLoop=1;jettySize=auto;html=1;entryX=0;entryY=0.5;entryDx=0;entryDy=0;endArrow=none;endFill=0;" edge="1" parent="1" source="fdgpIoRzwKh2oiRHj7HS-59" target="fdgpIoRzwKh2oiRHj7HS-1">
          <mxGeometry relative="1" as="geometry" />
        </mxCell>
        <mxCell id="fdgpIoRzwKh2oiRHj7HS-59" value="1 Frame Delay&lt;div&gt;&lt;/div&gt;" style="rounded=0;whiteSpace=wrap;html=1;fontFamily=Go Mono;fontSize=10;" vertex="1" parent="1">
          <mxGeometry x="410" y="205" width="100" height="30" as="geometry" />
        </mxCell>
        <mxCell id="fdgpIoRzwKh2oiRHj7HS-70" value="Frequency Domain" style="text;html=1;align=center;verticalAlign=middle;resizable=0;points=[];autosize=1;strokeColor=none;fillColor=none;fontFamily=Go Mono;fontSize=10;fontColor=#FF8000;" vertex="1" parent="1">
          <mxGeometry x="435" y="39" width="115" height="30" as="geometry" />
        </mxCell>
      </root>
    </mxGraphModel>
  </diagram>
</mxfile>
